<svg xmlns="http://www.w3.org/2000/svg" version="1.1" xmlns:xlink="http://www.w3.org/1999/xlink" xmlns:svgjs="http://svgjs.dev/svgjs" width="2000" height="1500" viewBox="0 0 2000 1500"><rect width="2000" height="1500" fill="#ffffff"></rect><g transform="matrix(0.75,0,0,0.75,249.090909090909,680.6310389690424)"><svg viewBox="0 0 396 37" data-background-color="#ffffff" preserveAspectRatio="xMidYMid meet" height="186" width="2000" xmlns="http://www.w3.org/2000/svg" xmlns:xlink="http://www.w3.org/1999/xlink"><g id="tight-bounds" transform="matrix(1,0,0,1,0.2400000000000091,-0.10106409931591998)"><svg viewBox="0 0 395.52 37.20212819863187" height="37.20212819863187" width="395.52"><g><svg viewBox="0 0 395.52 37.20212819863187" height="37.20212819863187" width="395.52"><g><svg viewBox="0 0 395.52 37.20212819863187" height="37.20212819863187" width="395.52"><g id="textblocktransform"><svg viewBox="0 0 395.52 37.20212819863187" height="37.20212819863187" width="395.52" id="textblock"><g><svg viewBox="0 0 395.52 37.20212819863187" height="37.20212819863187" width="395.52"><g transform="matrix(1,0,0,1,0,0)"><svg width="395.52" viewBox="3.25 -35.5 385.42 36.26" height="37.20212819863187" data-palette-color="#2a2c35"><path d="M10.25-7.01L10.25 0 3.25 0 3.25-35.01 10.25-35.01 10.25-17.5 23.29-35.01 31.25-35.01 20.19-20.24 31.25 0 23.29 0 15.6-14.16 10.25-7.01ZM58.49-7.01L58.49 0 34.49 0 34.49-35.01 58.49-35.01 58.49-28 41.5-28 41.5-21 53-21 53-13.99 41.5-13.99 41.5-7.01 58.49-7.01ZM79.15-10.96L79.15 0 72.16 0 72.16-10.96Q69.84-11.55 67.9-12.84 65.96-14.14 64.57-15.93 63.18-17.72 62.41-19.91 61.64-22.09 61.64-24.51L61.64-24.51 61.64-35.01 68.65-35.01 68.65-24.51Q68.65-23.07 69.2-21.79 69.75-20.51 70.7-19.56 71.65-18.6 72.93-18.05 74.21-17.5 75.65-17.5L75.65-17.5Q77.09-17.5 78.38-18.05 79.66-18.6 80.61-19.56 81.56-20.51 82.11-21.79 82.66-23.07 82.66-24.51L82.66-24.51 82.66-35.01 89.64-35.01 89.64-24.51Q89.64-22.09 88.87-19.91 88.11-17.72 86.71-15.93 85.32-14.14 83.39-12.84 81.46-11.55 79.15-10.96L79.15-10.96ZM92.35-24.51L92.35-24.51Q92.35-26.68 93.18-28.59 94.01-30.49 95.44-31.92 96.87-33.35 98.77-34.18 100.68-35.01 102.85-35.01L102.85-35.01 118.91-35.01 118.91-28 102.85-28Q102.12-28 101.48-27.73 100.85-27.47 100.37-26.99 99.89-26.51 99.63-25.88 99.36-25.24 99.36-24.51L99.36-24.51Q99.36-23.78 99.63-23.13 99.89-22.49 100.37-22.01 100.85-21.53 101.48-21.26 102.12-21 102.85-21L102.85-21 109.86-21Q112.03-21 113.95-20.18 115.86-19.36 117.29-17.93 118.72-16.5 119.54-14.59 120.35-12.67 120.35-10.5L120.35-10.5Q120.35-8.33 119.54-6.42 118.72-4.52 117.29-3.09 115.86-1.66 113.95-0.83 112.03 0 109.86 0L109.86 0 94.3 0 94.3-7.01 109.86-7.01Q110.59-7.01 111.22-7.28 111.86-7.54 112.33-8.02 112.81-8.5 113.08-9.13 113.35-9.77 113.35-10.5L113.35-10.5Q113.35-11.23 113.08-11.87 112.81-12.5 112.33-12.98 111.86-13.45 111.22-13.72 110.59-13.99 109.86-13.99L109.86-13.99 102.85-13.99Q100.68-13.99 98.77-14.82 96.87-15.65 95.44-17.08 94.01-18.51 93.18-20.42 92.35-22.34 92.35-24.51ZM131.53-13.99L145.55-13.99 145.55-21Q145.55-22.44 145-23.72 144.45-25 143.5-25.95 142.54-26.9 141.26-27.45 139.98-28 138.54-28L138.54-28Q137.1-28 135.82-27.45 134.54-26.9 133.58-25.95 132.63-25 132.08-23.72 131.53-22.44 131.53-21L131.53-21 131.53-13.99ZM152.55-21L152.55 0 145.55 0 145.55-7.01 131.53-7.01 131.53 0 124.55 0 124.55-21Q124.55-23.9 125.65-26.45 126.75-29 128.64-30.91 130.53-32.81 133.08-33.91 135.63-35.01 138.54-35.01L138.54-35.01Q141.45-35.01 144-33.91 146.55-32.81 148.45-30.91 150.36-29 151.45-26.45 152.55-23.9 152.55-21L152.55-21ZM186.63-35.01L186.63 0 179.14 0 165.64-23.05 165.64 0 158.63 0 158.63-35.01 166.13-35.01 179.63-11.94 179.63-35.01 186.63-35.01ZM221.18-17.5L221.18-17.5Q221.18-15.09 220.55-12.85 219.93-10.62 218.78-8.68 217.64-6.74 216.05-5.14 214.46-3.54 212.51-2.39 210.56-1.25 208.32-0.62 206.09 0 203.67 0L203.67 0 193.12 0 193.12-35.01 203.67-35.01Q206.09-35.01 208.32-34.39 210.56-33.76 212.51-32.62 214.46-31.47 216.05-29.87 217.64-28.27 218.78-26.33 219.93-24.39 220.55-22.16 221.18-19.92 221.18-17.5ZM214.17-17.5L214.17-17.5Q214.17-19.68 213.35-21.58 212.53-23.49 211.11-24.91 209.68-26.34 207.76-27.17 205.84-28 203.67-28L203.67-28 200.18-28 200.18-7.01 203.67-7.01Q205.84-7.01 207.76-7.82 209.68-8.64 211.11-10.07 212.53-11.5 213.35-13.42 214.17-15.33 214.17-17.5ZM250.06-9.69L253.77-3.59Q251.33-1.49 248.3-0.37 245.27 0.76 242.02 0.76L242.02 0.76Q239.53 0.76 237.23 0.11 234.92-0.54 232.9-1.72 230.89-2.91 229.23-4.57 227.57-6.23 226.39-8.24 225.2-10.25 224.56-12.56 223.91-14.87 223.91-17.36L223.91-17.36Q223.91-19.85 224.56-22.17 225.2-24.49 226.39-26.5 227.57-28.52 229.23-30.18 230.89-31.84 232.9-33.02 234.92-34.2 237.23-34.85 239.53-35.5 242.02-35.5L242.02-35.5Q245.27-35.5 248.3-34.39 251.33-33.28 253.77-31.15L253.77-31.15 250.06-25.05Q248.52-26.71 246.42-27.6 244.32-28.49 242.02-28.49L242.02-28.49Q239.7-28.49 237.68-27.61 235.65-26.73 234.14-25.23 232.62-23.73 231.75-21.69 230.87-19.65 230.87-17.36L230.87-17.36Q230.87-15.06 231.75-13.05 232.62-11.04 234.14-9.52 235.65-8.01 237.68-7.13 239.7-6.25 242.02-6.25L242.02-6.25Q244.32-6.25 246.42-7.14 248.52-8.03 250.06-9.69L250.06-9.69ZM282.33-7.01L282.33 0 257.82 0 257.82-35.01 264.82-35.01 264.82-7.01 282.33-7.01ZM292.97-35.01L292.97 0 285.96 0 285.96-35.01 292.97-35.01ZM323.71-9.69L327.42-3.59Q324.98-1.49 321.95-0.37 318.92 0.76 315.67 0.76L315.67 0.76Q313.18 0.76 310.88 0.11 308.57-0.54 306.55-1.72 304.54-2.91 302.88-4.57 301.22-6.23 300.04-8.24 298.85-10.25 298.2-12.56 297.56-14.87 297.56-17.36L297.56-17.36Q297.56-19.85 298.2-22.17 298.85-24.49 300.04-26.5 301.22-28.52 302.88-30.18 304.54-31.84 306.55-33.02 308.57-34.2 310.88-34.85 313.18-35.5 315.67-35.5L315.67-35.5Q318.92-35.5 321.95-34.39 324.98-33.28 327.42-31.15L327.42-31.15 323.71-25.05Q322.17-26.71 320.07-27.6 317.97-28.49 315.67-28.49L315.67-28.49Q313.35-28.49 311.33-27.61 309.3-26.73 307.79-25.23 306.27-23.73 305.39-21.69 304.52-19.65 304.52-17.36L304.52-17.36Q304.52-15.06 305.39-13.05 306.27-11.04 307.79-9.52 309.3-8.01 311.33-7.13 313.35-6.25 315.67-6.25L315.67-6.25Q317.97-6.25 320.07-7.14 322.17-8.03 323.71-9.69L323.71-9.69ZM338.47-7.01L338.47 0 331.47 0 331.47-35.01 338.47-35.01 338.47-17.5 351.51-35.01 359.47-35.01 348.41-20.24 359.47 0 351.51 0 343.82-14.16 338.47-7.01ZM360.66-24.51L360.66-24.51Q360.66-26.68 361.49-28.59 362.32-30.49 363.75-31.92 365.18-33.35 367.08-34.18 368.99-35.01 371.16-35.01L371.16-35.01 387.23-35.01 387.23-28 371.16-28Q370.43-28 369.79-27.73 369.16-27.47 368.68-26.99 368.21-26.51 367.94-25.88 367.67-25.24 367.67-24.51L367.67-24.51Q367.67-23.78 367.94-23.13 368.21-22.49 368.68-22.01 369.16-21.53 369.79-21.26 370.43-21 371.16-21L371.16-21 378.17-21Q380.34-21 382.26-20.18 384.17-19.36 385.6-17.93 387.03-16.5 387.85-14.59 388.67-12.67 388.67-10.5L388.67-10.5Q388.67-8.33 387.85-6.42 387.03-4.52 385.6-3.09 384.17-1.66 382.26-0.83 380.34 0 378.17 0L378.17 0 362.62 0 362.62-7.01 378.17-7.01Q378.9-7.01 379.54-7.28 380.17-7.54 380.65-8.02 381.12-8.5 381.39-9.13 381.66-9.77 381.66-10.5L381.66-10.5Q381.66-11.23 381.39-11.87 381.12-12.5 380.65-12.98 380.17-13.45 379.54-13.72 378.9-13.99 378.17-13.99L378.17-13.99 371.16-13.99Q368.99-13.99 367.08-14.82 365.18-15.65 363.75-17.08 362.32-18.51 361.49-20.42 360.66-22.34 360.66-24.51Z" opacity="1" transform="matrix(1,0,0,1,0,0)" fill="#000000" class="wordmark-text-0" data-fill-palette-color="primary" id="text-0"></path></svg></g></svg></g></svg></g></svg></g></svg></g><defs></defs></svg><rect width="395.52" height="37.20212819863187" fill="none" stroke="none" visibility="hidden"></rect></g></svg></g></svg>